<mxfile host="65bd71144e">
    <diagram id="ciPo3X5teLXdfqjWm5yF" name="Page-1">
        <mxGraphModel dx="2153" dy="801" grid="1" gridSize="10" guides="1" tooltips="1" connect="1" arrows="1" fold="1" page="1" pageScale="1" pageWidth="850" pageHeight="1100" math="0" shadow="0">
            <root>
                <mxCell id="0"/>
                <mxCell id="1" parent="0"/>
                <mxCell id="550" style="edgeStyle=none;html=1;exitX=0;exitY=0.25;exitDx=0;exitDy=0;exitPerimeter=0;entryX=0;entryY=0.5;entryDx=0;entryDy=0;endArrow=oval;endFill=1;rounded=0;startArrow=none;startFill=0;" parent="1" target="554" edge="1">
                    <mxGeometry relative="1" as="geometry">
                        <Array as="points">
                            <mxPoint x="450" y="270"/>
                        </Array>
                        <mxPoint x="265" y="270" as="sourcePoint"/>
                    </mxGeometry>
                </mxCell>
                <mxCell id="551" style="edgeStyle=none;rounded=0;html=1;endArrow=oval;endFill=1;startArrow=none;startFill=0;" parent="1" edge="1">
                    <mxGeometry relative="1" as="geometry">
                        <mxPoint x="530" y="470" as="targetPoint"/>
                        <mxPoint x="530" y="260" as="sourcePoint"/>
                        <Array as="points">
                            <mxPoint x="530" y="280"/>
                        </Array>
                    </mxGeometry>
                </mxCell>
                <mxCell id="552" style="edgeStyle=none;html=1;exitX=1;exitY=0.12;exitDx=0;exitDy=0;endArrow=oval;endFill=1;startArrow=none;startFill=0;" parent="1" source="554" edge="1">
                    <mxGeometry relative="1" as="geometry">
                        <mxPoint x="610" y="223" as="targetPoint"/>
                    </mxGeometry>
                </mxCell>
                <mxCell id="553" style="edgeStyle=none;rounded=0;jumpStyle=none;html=1;exitX=1;exitY=0.88;exitDx=0;exitDy=0;strokeColor=default;strokeWidth=1;startArrow=none;startFill=0;endArrow=none;endFill=0;endSize=6;" parent="1" source="554" edge="1">
                    <mxGeometry relative="1" as="geometry">
                        <mxPoint x="530" y="256.8837209302326" as="targetPoint"/>
                        <Array as="points">
                            <mxPoint x="530" y="243"/>
                            <mxPoint x="530" y="260"/>
                        </Array>
                    </mxGeometry>
                </mxCell>
                <mxCell id="554" value="" style="shape=mxgraph.electrical.electro-mechanical.twoWaySwitch;aspect=fixed;elSwitchState=2;flipV=1;" parent="1" vertex="1">
                    <mxGeometry x="450" y="220" width="75" height="26" as="geometry"/>
                </mxCell>
                <mxCell id="555" style="edgeStyle=none;html=1;exitX=0;exitY=0.57;exitDx=0;exitDy=0;exitPerimeter=0;endArrow=none;endFill=0;entryX=1;entryY=0.5;entryDx=0;entryDy=0;entryPerimeter=0;" parent="1" source="556" edge="1">
                    <mxGeometry relative="1" as="geometry">
                        <mxPoint x="250" y="470" as="targetPoint"/>
                    </mxGeometry>
                </mxCell>
                <mxCell id="556" value="" style="verticalLabelPosition=bottom;shadow=0;dashed=0;align=center;html=1;verticalAlign=top;shape=mxgraph.electrical.opto_electronics.led_2;pointerEvents=1;" parent="1" vertex="1">
                    <mxGeometry x="270" y="430" width="100" height="70" as="geometry"/>
                </mxCell>
                <mxCell id="557" style="edgeStyle=none;rounded=0;html=1;startArrow=none;startFill=0;endArrow=none;endFill=0;" parent="1" source="558" edge="1">
                    <mxGeometry relative="1" as="geometry">
                        <mxPoint x="550" y="470" as="targetPoint"/>
                    </mxGeometry>
                </mxCell>
                <mxCell id="558" value="" style="pointerEvents=1;verticalLabelPosition=bottom;shadow=0;dashed=0;align=center;html=1;verticalAlign=top;shape=mxgraph.electrical.resistors.resistor_2;" parent="1" vertex="1">
                    <mxGeometry x="360" y="460" width="100" height="20" as="geometry"/>
                </mxCell>
                <mxCell id="559" style="edgeStyle=none;rounded=0;html=1;exitX=1;exitY=0.5;exitDx=0;exitDy=0;startArrow=none;startFill=0;endArrow=none;endFill=0;" parent="1" source="561" edge="1">
                    <mxGeometry relative="1" as="geometry">
                        <mxPoint x="550" y="470" as="targetPoint"/>
                        <mxPoint x="560" y="380" as="sourcePoint"/>
                        <Array as="points">
                            <mxPoint x="610" y="470"/>
                        </Array>
                    </mxGeometry>
                </mxCell>
                <mxCell id="560" style="edgeStyle=none;html=1;exitX=0;exitY=0.5;exitDx=0;exitDy=0;endArrow=none;endFill=0;" parent="1" source="561" edge="1">
                    <mxGeometry relative="1" as="geometry">
                        <mxPoint x="610" y="50" as="targetPoint"/>
                        <Array as="points">
                            <mxPoint x="610" y="230"/>
                        </Array>
                    </mxGeometry>
                </mxCell>
                <mxCell id="561" value="" style="pointerEvents=1;verticalLabelPosition=bottom;shadow=0;dashed=0;align=center;html=1;verticalAlign=top;shape=mxgraph.electrical.miscellaneous.batteryStack;rotation=90;flipV=0;flipH=1;" parent="1" vertex="1">
                    <mxGeometry x="560" y="270" width="100" height="60" as="geometry"/>
                </mxCell>
                <mxCell id="562" value="&lt;div style=&quot;&quot;&gt;Cin | A | B┃Sum | Cout&lt;/div&gt;&lt;div style=&quot;&quot;&gt;--------------------------------&lt;/div&gt;&lt;div style=&quot;&quot;&gt;&lt;br&gt;&lt;/div&gt;" style="text;strokeColor=none;align=left;fillColor=none;html=1;verticalAlign=middle;whiteSpace=wrap;rounded=0;" parent="1" vertex="1">
                    <mxGeometry x="-220" y="120" width="130" height="109" as="geometry"/>
                </mxCell>
                <mxCell id="563" value="Justin, L&lt;br&gt;TEJ3M&lt;br&gt;4-18&lt;br&gt;&lt;span style=&quot;color: rgba(0, 0, 0, 0); font-family: monospace; font-size: 0px;&quot;&gt;%3CmxGraphModel%3E%3Croot%3E%3CmxCell%20id%3D%220%22%2F%3E%3CmxCell%20id%3D%221%22%20parent%3D%220%22%2F%3E%3CmxCell%20id%3D%222%22%20value%3D%225%20V%22%20style%3D%22text%3BstrokeColor%3Dnone%3Balign%3Dcenter%3BfillColor%3Dnone%3Bhtml%3D1%3BverticalAlign%3Dmiddle%3BwhiteSpace%3Dwrap%3Brounded%3D0%3B%22%20vertex%3D%221%22%20parent%3D%221%22%3E%3CmxGeometry%20x%3D%22550%22%20y%3D%22275%22%20width%3D%2260%22%20height%3D%2230%22%20as%3D%22geometry%22%2F%3E%3C%2FmxCell%3E%3C%2Froot%3E%3C%2FmxGraphModel%3E&lt;/span&gt;" style="text;strokeColor=none;align=left;fillColor=none;html=1;verticalAlign=middle;whiteSpace=wrap;rounded=0;" parent="1" vertex="1">
                    <mxGeometry x="-130" y="60" width="60" height="30" as="geometry"/>
                </mxCell>
                <mxCell id="564" value="5V +" style="text;strokeColor=none;align=center;fillColor=none;html=1;verticalAlign=middle;whiteSpace=wrap;rounded=0;" parent="1" vertex="1">
                    <mxGeometry x="630" y="290" width="60" height="30" as="geometry"/>
                </mxCell>
                <mxCell id="565" value="220 Ω" style="text;strokeColor=none;align=center;fillColor=none;html=1;verticalAlign=middle;whiteSpace=wrap;rounded=0;labelBackgroundColor=none;" parent="1" vertex="1">
                    <mxGeometry x="380" y="490" width="60" height="30" as="geometry"/>
                </mxCell>
                <mxCell id="566" value="Input B" style="text;strokeColor=none;align=center;fillColor=none;html=1;verticalAlign=middle;whiteSpace=wrap;rounded=0;labelBackgroundColor=none;" parent="1" vertex="1">
                    <mxGeometry x="457.5" y="250" width="60" height="30" as="geometry"/>
                </mxCell>
                <mxCell id="567" value="sum" style="text;strokeColor=none;align=center;fillColor=none;html=1;verticalAlign=middle;whiteSpace=wrap;rounded=0;labelBackgroundColor=none;" parent="1" vertex="1">
                    <mxGeometry x="290" y="500" width="60" height="30" as="geometry"/>
                </mxCell>
                <mxCell id="568" value="+" style="text;strokeColor=none;align=center;fillColor=none;html=1;verticalAlign=middle;whiteSpace=wrap;rounded=0;" parent="1" vertex="1">
                    <mxGeometry x="620" y="240" width="60" height="30" as="geometry"/>
                </mxCell>
                <mxCell id="569" value="-" style="text;strokeColor=none;align=center;fillColor=none;html=1;verticalAlign=middle;whiteSpace=wrap;rounded=0;" parent="1" vertex="1">
                    <mxGeometry x="610" y="340" width="60" height="30" as="geometry"/>
                </mxCell>
                <mxCell id="570" value="Input A" style="text;strokeColor=none;align=center;fillColor=none;html=1;verticalAlign=middle;whiteSpace=wrap;rounded=0;labelBackgroundColor=none;" parent="1" vertex="1">
                    <mxGeometry x="480" y="120" width="60" height="30" as="geometry"/>
                </mxCell>
                <mxCell id="571" style="edgeStyle=none;html=1;endArrow=oval;endFill=1;rounded=0;startArrow=none;startFill=0;strokeColor=default;strokeWidth=1;endSize=6;jumpStyle=none;" parent="1" edge="1">
                    <mxGeometry relative="1" as="geometry">
                        <mxPoint x="530" y="360" as="targetPoint"/>
                        <mxPoint x="550" y="120" as="sourcePoint"/>
                        <Array as="points">
                            <mxPoint x="550" y="360"/>
                            <mxPoint x="530" y="360"/>
                        </Array>
                    </mxGeometry>
                </mxCell>
                <mxCell id="572" style="edgeStyle=none;rounded=0;html=1;exitX=1;exitY=0.88;exitDx=0;exitDy=0;startArrow=none;startFill=0;endArrow=none;endFill=0;" parent="1" source="575" edge="1">
                    <mxGeometry relative="1" as="geometry">
                        <mxPoint x="550" y="120" as="targetPoint"/>
                    </mxGeometry>
                </mxCell>
                <mxCell id="573" style="edgeStyle=none;rounded=0;jumpStyle=none;html=1;exitX=1;exitY=0.12;exitDx=0;exitDy=0;strokeColor=default;strokeWidth=1;startArrow=none;startFill=0;endArrow=oval;endFill=1;endSize=6;" parent="1" source="575" edge="1">
                    <mxGeometry relative="1" as="geometry">
                        <mxPoint x="610" y="100" as="targetPoint"/>
                    </mxGeometry>
                </mxCell>
                <mxCell id="574" style="edgeStyle=none;rounded=0;html=1;endArrow=none;endFill=0;startArrow=oval;startFill=1;" parent="1" edge="1">
                    <mxGeometry relative="1" as="geometry">
                        <mxPoint x="235" y="230" as="targetPoint"/>
                        <Array as="points">
                            <mxPoint x="410" y="190"/>
                            <mxPoint x="235" y="190"/>
                        </Array>
                        <mxPoint x="410" y="110" as="sourcePoint"/>
                    </mxGeometry>
                </mxCell>
                <mxCell id="602" style="edgeStyle=none;html=1;exitX=0;exitY=0.5;exitDx=0;exitDy=0;startArrow=none;startFill=0;endArrow=none;endFill=0;" parent="1" source="575" edge="1">
                    <mxGeometry relative="1" as="geometry">
                        <mxPoint x="410" y="110" as="targetPoint"/>
                    </mxGeometry>
                </mxCell>
                <mxCell id="608" style="edgeStyle=none;rounded=0;html=1;exitX=0;exitY=0.5;exitDx=0;exitDy=0;startArrow=none;startFill=0;endArrow=none;endFill=0;fillColor=none;" parent="1" source="575" edge="1">
                    <mxGeometry relative="1" as="geometry">
                        <mxPoint x="110" y="110" as="targetPoint"/>
                    </mxGeometry>
                </mxCell>
                <mxCell id="575" value="" style="shape=mxgraph.electrical.electro-mechanical.twoWaySwitch;aspect=fixed;elSwitchState=2;flipV=1;" parent="1" vertex="1">
                    <mxGeometry x="435" y="97" width="75" height="26" as="geometry"/>
                </mxCell>
                <mxCell id="576" value="" style="edgeStyle=none;orthogonalLoop=1;jettySize=auto;html=1;rounded=0;strokeColor=default;strokeWidth=1;startArrow=none;startFill=0;endArrow=none;endFill=0;endSize=6;jumpStyle=none;" parent="1" edge="1">
                    <mxGeometry width="80" relative="1" as="geometry">
                        <mxPoint x="530" y="260" as="sourcePoint"/>
                        <mxPoint x="530" y="260" as="targetPoint"/>
                        <Array as="points"/>
                    </mxGeometry>
                </mxCell>
                <mxCell id="583" style="edgeStyle=none;html=1;exitX=0;exitY=0.75;exitDx=0;exitDy=0;exitPerimeter=0;endArrow=none;endFill=0;" parent="1" edge="1">
                    <mxGeometry relative="1" as="geometry">
                        <mxPoint x="235.0625" y="220" as="targetPoint"/>
                        <mxPoint x="235" y="270" as="sourcePoint"/>
                    </mxGeometry>
                </mxCell>
                <mxCell id="630" style="edgeStyle=none;rounded=0;html=1;exitX=1;exitY=0.5;exitDx=0;exitDy=0;exitPerimeter=0;entryX=0;entryY=0.25;entryDx=0;entryDy=0;entryPerimeter=0;startArrow=none;startFill=0;endArrow=none;endFill=0;" parent="1" source="585" target="616" edge="1">
                    <mxGeometry relative="1" as="geometry"/>
                </mxCell>
                <mxCell id="585" value="" style="verticalLabelPosition=bottom;shadow=0;dashed=0;align=center;html=1;verticalAlign=top;shape=mxgraph.electrical.logic_gates.logic_gate;operation=xor;rotation=90;" parent="1" vertex="1">
                    <mxGeometry x="200" y="290" width="100" height="60" as="geometry"/>
                </mxCell>
                <mxCell id="595" value="" style="verticalLabelPosition=bottom;shadow=0;dashed=0;align=center;html=1;verticalAlign=top;shape=mxgraph.electrical.opto_electronics.led_2;pointerEvents=1;" parent="1" vertex="1">
                    <mxGeometry x="250" y="580" width="100" height="70" as="geometry"/>
                </mxCell>
                <mxCell id="596" style="edgeStyle=none;rounded=0;html=1;startArrow=none;startFill=0;endArrow=none;endFill=0;" parent="1" source="597" edge="1">
                    <mxGeometry relative="1" as="geometry">
                        <mxPoint x="530" y="620" as="targetPoint"/>
                    </mxGeometry>
                </mxCell>
                <mxCell id="597" value="" style="pointerEvents=1;verticalLabelPosition=bottom;shadow=0;dashed=0;align=center;html=1;verticalAlign=top;shape=mxgraph.electrical.resistors.resistor_2;" parent="1" vertex="1">
                    <mxGeometry x="340" y="610" width="100" height="20" as="geometry"/>
                </mxCell>
                <mxCell id="598" value="220 Ω" style="text;strokeColor=none;align=center;fillColor=none;html=1;verticalAlign=middle;whiteSpace=wrap;rounded=0;labelBackgroundColor=none;" parent="1" vertex="1">
                    <mxGeometry x="360" y="640" width="60" height="30" as="geometry"/>
                </mxCell>
                <mxCell id="599" value="Cout" style="text;strokeColor=none;align=center;fillColor=none;html=1;verticalAlign=middle;whiteSpace=wrap;rounded=0;labelBackgroundColor=none;" parent="1" vertex="1">
                    <mxGeometry x="270" y="650" width="60" height="30" as="geometry"/>
                </mxCell>
                <mxCell id="600" value="" style="edgeStyle=none;orthogonalLoop=1;jettySize=auto;html=1;endArrow=none;endFill=0;" parent="1" edge="1">
                    <mxGeometry width="80" relative="1" as="geometry">
                        <mxPoint x="530" y="463.60009765625" as="sourcePoint"/>
                        <mxPoint x="530" y="620" as="targetPoint"/>
                        <Array as="points"/>
                    </mxGeometry>
                </mxCell>
                <mxCell id="604" value="" style="edgeStyle=none;orthogonalLoop=1;jettySize=auto;html=1;endArrow=none;endFill=0;" parent="1" target="603" edge="1">
                    <mxGeometry width="80" relative="1" as="geometry">
                        <mxPoint x="130" y="340" as="sourcePoint"/>
                        <mxPoint x="130" y="620" as="targetPoint"/>
                        <Array as="points"/>
                    </mxGeometry>
                </mxCell>
                <mxCell id="605" style="edgeStyle=none;html=1;exitX=0;exitY=0.25;exitDx=0;exitDy=0;exitPerimeter=0;entryX=0;entryY=0.5;entryDx=0;entryDy=0;startArrow=none;startFill=0;endArrow=none;endFill=0;rounded=0;" parent="1" source="603" target="554" edge="1">
                    <mxGeometry relative="1" as="geometry">
                        <Array as="points">
                            <mxPoint x="145" y="230"/>
                        </Array>
                    </mxGeometry>
                </mxCell>
                <mxCell id="609" style="edgeStyle=none;rounded=0;html=1;exitX=0;exitY=0.75;exitDx=0;exitDy=0;exitPerimeter=0;startArrow=none;startFill=0;endArrow=none;endFill=0;fillColor=none;strokeColor=default;" parent="1" source="603" edge="1">
                    <mxGeometry relative="1" as="geometry">
                        <mxPoint x="110" y="110" as="targetPoint"/>
                    </mxGeometry>
                </mxCell>
                <mxCell id="603" value="" style="verticalLabelPosition=bottom;shadow=0;dashed=0;align=center;html=1;verticalAlign=top;shape=mxgraph.electrical.logic_gates.logic_gate;operation=and;rotation=90;" parent="1" vertex="1">
                    <mxGeometry x="80" y="265" width="100" height="60" as="geometry"/>
                </mxCell>
                <mxCell id="611" value="" style="edgeStyle=none;html=1;exitX=0;exitY=0.57;exitDx=0;exitDy=0;exitPerimeter=0;endArrow=none;endFill=0;" parent="1" source="595" edge="1">
                    <mxGeometry relative="1" as="geometry">
                        <mxPoint x="260" y="619.875" as="targetPoint"/>
                        <mxPoint x="250" y="619.9000000000001" as="sourcePoint"/>
                    </mxGeometry>
                </mxCell>
                <mxCell id="614" style="edgeStyle=none;html=1;entryX=1;entryY=0.5;entryDx=0;entryDy=0;entryPerimeter=0;endArrow=none;endFill=0;exitX=0;exitY=0.25;exitDx=0;exitDy=0;exitPerimeter=0;rounded=0;" parent="1" source="612" target="603" edge="1">
                    <mxGeometry relative="1" as="geometry">
                        <mxPoint x="130" y="600" as="sourcePoint"/>
                        <Array as="points">
                            <mxPoint x="130" y="605"/>
                        </Array>
                    </mxGeometry>
                </mxCell>
                <mxCell id="612" value="" style="verticalLabelPosition=bottom;shadow=0;dashed=0;align=center;html=1;verticalAlign=top;shape=mxgraph.electrical.logic_gates.logic_gate;operation=or;" parent="1" vertex="1">
                    <mxGeometry x="170" y="590" width="100" height="60" as="geometry"/>
                </mxCell>
                <mxCell id="628" style="edgeStyle=none;rounded=0;html=1;exitX=1;exitY=0.5;exitDx=0;exitDy=0;exitPerimeter=0;entryX=0;entryY=0.75;entryDx=0;entryDy=0;entryPerimeter=0;startArrow=none;startFill=0;endArrow=none;endFill=0;" parent="1" source="613" target="612" edge="1">
                    <mxGeometry relative="1" as="geometry">
                        <Array as="points">
                            <mxPoint x="-10" y="635"/>
                        </Array>
                    </mxGeometry>
                </mxCell>
                <mxCell id="629" style="edgeStyle=none;rounded=0;html=1;exitX=0;exitY=0.75;exitDx=0;exitDy=0;exitPerimeter=0;startArrow=none;startFill=0;endArrow=none;endFill=0;" parent="1" source="613" edge="1">
                    <mxGeometry relative="1" as="geometry">
                        <mxPoint x="-30.000000000000227" y="60" as="targetPoint"/>
                    </mxGeometry>
                </mxCell>
                <mxCell id="631" style="edgeStyle=none;rounded=0;html=1;exitX=0;exitY=0.25;exitDx=0;exitDy=0;exitPerimeter=0;startArrow=none;startFill=0;endArrow=oval;endFill=1;" parent="1" source="613" edge="1">
                    <mxGeometry relative="1" as="geometry">
                        <mxPoint x="110" y="370" as="targetPoint"/>
                        <Array as="points">
                            <mxPoint x="60" y="305"/>
                            <mxPoint x="60" y="350"/>
                            <mxPoint x="110" y="350"/>
                        </Array>
                    </mxGeometry>
                </mxCell>
                <mxCell id="613" value="" style="verticalLabelPosition=bottom;shadow=0;dashed=0;align=center;html=1;verticalAlign=top;shape=mxgraph.electrical.logic_gates.logic_gate;operation=and;rotation=90;" parent="1" vertex="1">
                    <mxGeometry x="-60" y="325" width="100" height="60" as="geometry"/>
                </mxCell>
                <mxCell id="617" style="edgeStyle=none;rounded=0;html=1;exitX=1;exitY=0.5;exitDx=0;exitDy=0;exitPerimeter=0;endArrow=none;endFill=0;" parent="1" source="616" edge="1">
                    <mxGeometry relative="1" as="geometry">
                        <mxPoint x="250" y="470" as="targetPoint"/>
                    </mxGeometry>
                </mxCell>
                <mxCell id="632" style="edgeStyle=none;rounded=0;html=1;exitX=0;exitY=0.75;exitDx=0;exitDy=0;exitPerimeter=0;startArrow=none;startFill=0;endArrow=oval;endFill=1;" parent="1" source="616" edge="1">
                    <mxGeometry relative="1" as="geometry">
                        <mxPoint x="-30" y="130" as="targetPoint"/>
                        <Array as="points">
                            <mxPoint x="40" y="130"/>
                        </Array>
                    </mxGeometry>
                </mxCell>
                <mxCell id="616" value="" style="verticalLabelPosition=bottom;shadow=0;dashed=0;align=center;html=1;verticalAlign=top;shape=mxgraph.electrical.logic_gates.logic_gate;operation=xor;rotation=90;" parent="1" vertex="1">
                    <mxGeometry x="10" y="390" width="100" height="60" as="geometry"/>
                </mxCell>
                <mxCell id="622" style="edgeStyle=none;rounded=0;html=1;exitX=1;exitY=0.88;exitDx=0;exitDy=0;endArrow=oval;endFill=1;startArrow=none;startFill=0;" parent="1" source="620" edge="1">
                    <mxGeometry relative="1" as="geometry">
                        <mxPoint x="530" y="430" as="targetPoint"/>
                        <Array as="points">
                            <mxPoint x="580" y="430"/>
                        </Array>
                    </mxGeometry>
                </mxCell>
                <mxCell id="623" style="edgeStyle=none;rounded=0;html=1;exitX=1;exitY=0.12;exitDx=0;exitDy=0;startArrow=none;startFill=0;endArrow=oval;endFill=1;" parent="1" source="620" edge="1">
                    <mxGeometry relative="1" as="geometry">
                        <mxPoint x="610" y="48" as="targetPoint"/>
                    </mxGeometry>
                </mxCell>
                <mxCell id="625" style="edgeStyle=none;rounded=0;html=1;exitX=0;exitY=0.5;exitDx=0;exitDy=0;startArrow=none;startFill=0;endArrow=oval;endFill=1;" parent="1" source="620" edge="1">
                    <mxGeometry relative="1" as="geometry">
                        <mxPoint x="-30" y="60" as="targetPoint"/>
                    </mxGeometry>
                </mxCell>
                <mxCell id="620" value="" style="shape=mxgraph.electrical.electro-mechanical.twoWaySwitch;aspect=fixed;elSwitchState=2;flipV=1;flipH=0;" parent="1" vertex="1">
                    <mxGeometry x="500" y="45" width="75" height="26" as="geometry"/>
                </mxCell>
                <mxCell id="633" value="Cin" style="text;strokeColor=none;align=center;fillColor=none;html=1;verticalAlign=middle;whiteSpace=wrap;rounded=0;labelBackgroundColor=none;" parent="1" vertex="1">
                    <mxGeometry x="480" y="67" width="60" height="30" as="geometry"/>
                </mxCell>
                <mxCell id="635" value="&lt;div style=&quot;border-color: rgb(0, 0, 0); font-family: Helvetica; font-size: 12px; font-style: normal; font-variant-ligatures: normal; font-variant-caps: normal; font-weight: 400; letter-spacing: normal; orphans: 2; text-align: left; text-indent: 0px; text-transform: none; widows: 2; word-spacing: 0px; -webkit-text-stroke-width: 0px; text-decoration-thickness: initial; text-decoration-style: initial; text-decoration-color: initial;&quot;&gt;&lt;font color=&quot;#ffffff&quot;&gt;0 | 0 |&amp;nbsp; 0┃ 0&amp;nbsp; &amp;nbsp; &amp;nbsp; | 0&lt;/font&gt;&lt;/div&gt;&lt;div style=&quot;border-color: rgb(0, 0, 0); font-family: Helvetica; font-size: 12px; font-style: normal; font-variant-ligatures: normal; font-variant-caps: normal; font-weight: 400; letter-spacing: normal; orphans: 2; text-align: left; text-indent: 0px; text-transform: none; widows: 2; word-spacing: 0px; -webkit-text-stroke-width: 0px; text-decoration-thickness: initial; text-decoration-style: initial; text-decoration-color: initial;&quot;&gt;&lt;font color=&quot;#ffffff&quot;&gt;0 | 0 |&amp;nbsp; 1┃ 1&amp;nbsp; &amp;nbsp; &amp;nbsp; | 0&lt;/font&gt;&lt;/div&gt;&lt;div style=&quot;border-color: rgb(0, 0, 0); font-family: Helvetica; font-size: 12px; font-style: normal; font-variant-ligatures: normal; font-variant-caps: normal; font-weight: 400; letter-spacing: normal; orphans: 2; text-align: left; text-indent: 0px; text-transform: none; widows: 2; word-spacing: 0px; -webkit-text-stroke-width: 0px; text-decoration-thickness: initial; text-decoration-style: initial; text-decoration-color: initial;&quot;&gt;&lt;font color=&quot;#ffffff&quot;&gt;0 | 1 |&amp;nbsp; 0┃ 1&amp;nbsp; &amp;nbsp; &amp;nbsp; | 0&lt;/font&gt;&lt;/div&gt;&lt;div style=&quot;border-color: rgb(0, 0, 0); font-family: Helvetica; font-size: 12px; font-style: normal; font-variant-ligatures: normal; font-variant-caps: normal; font-weight: 400; letter-spacing: normal; orphans: 2; text-align: left; text-indent: 0px; text-transform: none; widows: 2; word-spacing: 0px; -webkit-text-stroke-width: 0px; text-decoration-thickness: initial; text-decoration-style: initial; text-decoration-color: initial;&quot;&gt;&lt;font color=&quot;#ffffff&quot;&gt;0 | 1 |&amp;nbsp; 1┃ 0&amp;nbsp; &amp;nbsp; &amp;nbsp; | 1&lt;/font&gt;&lt;/div&gt;&lt;div style=&quot;border-color: rgb(0, 0, 0); font-family: Helvetica; font-size: 12px; font-style: normal; font-variant-ligatures: normal; font-variant-caps: normal; font-weight: 400; letter-spacing: normal; orphans: 2; text-align: left; text-indent: 0px; text-transform: none; widows: 2; word-spacing: 0px; -webkit-text-stroke-width: 0px; text-decoration-thickness: initial; text-decoration-style: initial; text-decoration-color: initial;&quot;&gt;&lt;font color=&quot;#ffffff&quot;&gt;1 | 0 |&amp;nbsp; 0┃ 1&amp;nbsp; &amp;nbsp; &amp;nbsp; | 0&lt;/font&gt;&lt;/div&gt;&lt;div style=&quot;border-color: rgb(0, 0, 0); font-family: Helvetica; font-size: 12px; font-style: normal; font-variant-ligatures: normal; font-variant-caps: normal; font-weight: 400; letter-spacing: normal; orphans: 2; text-align: left; text-indent: 0px; text-transform: none; widows: 2; word-spacing: 0px; -webkit-text-stroke-width: 0px; text-decoration-thickness: initial; text-decoration-style: initial; text-decoration-color: initial;&quot;&gt;&lt;font color=&quot;#ffffff&quot;&gt;1 | 0 |&amp;nbsp; 1┃ 0&amp;nbsp; &amp;nbsp; &amp;nbsp; | 1&lt;/font&gt;&lt;/div&gt;&lt;div style=&quot;border-color: rgb(0, 0, 0); font-family: Helvetica; font-size: 12px; font-style: normal; font-variant-ligatures: normal; font-variant-caps: normal; font-weight: 400; letter-spacing: normal; orphans: 2; text-align: left; text-indent: 0px; text-transform: none; widows: 2; word-spacing: 0px; -webkit-text-stroke-width: 0px; text-decoration-thickness: initial; text-decoration-style: initial; text-decoration-color: initial;&quot;&gt;&lt;font color=&quot;#ffffff&quot;&gt;1 | 1 |&amp;nbsp; 0┃ 0&amp;nbsp; &amp;nbsp; &amp;nbsp; | 1&lt;/font&gt;&lt;/div&gt;&lt;div style=&quot;border-color: rgb(0, 0, 0); font-family: Helvetica; font-size: 12px; font-style: normal; font-variant-ligatures: normal; font-variant-caps: normal; font-weight: 400; letter-spacing: normal; orphans: 2; text-align: left; text-indent: 0px; text-transform: none; widows: 2; word-spacing: 0px; -webkit-text-stroke-width: 0px; text-decoration-thickness: initial; text-decoration-style: initial; text-decoration-color: initial;&quot;&gt;&lt;font color=&quot;#ffffff&quot;&gt;1 | 1 |&amp;nbsp; 1┃ 1&amp;nbsp; &amp;nbsp; &amp;nbsp; | 1&lt;/font&gt;&lt;/div&gt;" style="text;whiteSpace=wrap;html=1;" parent="1" vertex="1">
                    <mxGeometry x="-210" y="170" width="110" height="140" as="geometry"/>
                </mxCell>
                <mxCell id="636" value="Full Adder with Chips" style="text;strokeColor=none;align=center;fillColor=none;html=1;verticalAlign=middle;whiteSpace=wrap;rounded=0;labelBackgroundColor=none;" parent="1" vertex="1">
                    <mxGeometry x="-240" y="130" width="150" height="30" as="geometry"/>
                </mxCell>
            </root>
        </mxGraphModel>
    </diagram>
</mxfile>